PathFileType	4	(X/Y/Z)	C:/Users/opensim2020/Desktop/walking_exp_matlab/subject02_walking11_straight_01.trc																																																																																																																												
DataRate	CameraRate	NumFrames	NumMarkers	Units	OrigDataRate	OrigDataStartFrame	OrigNumFrames																																																																																																																								
100	100	4	42	mm	100	867	267																																																																																																																								
Frame#	Time	LFHD			RFHD			LBHD			RBHD			C7			T10			CLAV			STRN			RBAK			LSHO			LUPA			LELB			LFRM			LWRA			LWRB			LFIN			RSHO			RUPA			RELB			RFRM			RWRA			RWRB			RFIN			LASI			RASI			LPSI			RPSI			LTHI			LKNE			LTIB			LANK			LHEE			LTOE			RTHI			RKNE			RTIB			RANK			RHEE			RTOE			*39			*40			*41		
		X1	Y1	Z1	X2	Y2	Z2	X3	Y3	Z3	X4	Y4	Z4	X5	Y5	Z5	X6	Y6	Z6	X7	Y7	Z7	X8	Y8	Z8	X9	Y9	Z9	X10	Y10	Z10	X11	Y11	Z11	X12	Y12	Z12	X13	Y13	Z13	X14	Y14	Z14	X15	Y15	Z15	X16	Y16	Z16	X17	Y17	Z17	X18	Y18	Z18	X19	Y19	Z19	X20	Y20	Z20	X21	Y21	Z21	X22	Y22	Z22	X23	Y23	Z23	X24	Y24	Z24	X25	Y25	Z25	X26	Y26	Z26	X27	Y27	Z27	X28	Y28	Z28	X29	Y29	Z29	X30	Y30	Z30	X31	Y31	Z31	X32	Y32	Z32	X33	Y33	Z33	X34	Y34	Z34	X35	Y35	Z35	X36	Y36	Z36	X37	Y37	Z37	X38	Y38	Z38	X39	Y39	Z39	X40	Y40	Z40	X41	Y41	Z41	X42	Y42	Z42
																																																																																																																															
134	1.33	-188.83505	1760.14185	1447.89197	-174.21167	1732.68311	1589.05444	-286.64844	1645.52673	1436.57666	-283.13623	1612.5105	1576.37427	-304.21259	1516.25916	1494.15063	-351.36462	1243.0636	1498.38367	-164.14778	1455.10437	1478.13159	-108.40542	1281.83435	1480.37927	-355.54092	1342.8783	1554.50269	-233.24271	1501.83459	1310.93884	-237.66444	1302.15833	1225.57898	-234.12125	1159.76965	1214.65588	-209.50603	1028.995	1205.51233	-141.14471	912.21783	1243.62292	-183.93881	908.29425	1207.56067	-158.01198	847.09863	1207.34753	-219.37831	1478.89148	1677.83386	-254.19414	1288.69324	1757.78333	-248.11012	1142.17969	1771.55042	-223.8203	1024.78638	1791.45483	-179.17477	896.62024	1771.97595	-226.56595	894.87543	1803.31042	-192.19501	830.59387	1806.03516	-132.94261	973.24689	1353.93762	-105.13797	976.55475	1606.39502	-332.19571	1024.53149	1453.88562	-324.94052	1030.94897	1569.53027	-202.82973	663.24329	1295.37207	-224.66588	479.48135	1306.85901	-375.6297	373.16806	1320.4884	-512.78717	199.37595	1354.11548	-542.43469	195.60051	1415.0083	-441.66718	64.97159	1314.85181	-141.28914	675.81738	1678.37659	-120.88022	467.2558	1630.1571	-150.0332	279.54041	1632.70862	-164.08299	88.44975	1588.3031	-199.11787	36.43469	1532.52039	-11.02001	37.50654	1600.56299	-301.30713	1779.05286	1546.31555	2845.90161	1034.19751	-3357.33179	NaN	NaN	NaN
135	1.34	-180.38989	1761.59644	1449.02722	-165.65703	1734.0249	1590.15808	-278.03278	1646.84277	1437.68481	-274.32129	1613.83289	1577.74426	-295.37604	1517.84753	1495.58765	-343.25693	1244.83765	1500.30188	-155.60387	1456.29114	1478.89307	-100.29839	1282.82532	1480.99231	-346.90005	1344.87964	1556.7926	-225.39595	1502.92371	1311.94226	-231.43826	1303.2262	1227.25122	-229.65184	1160.7749	1216.40137	-207.68494	1029.58228	1206.20361	-141.84138	910.95538	1244.22192	-184.70923	908.60126	1208.04639	-160.56195	846.40778	1207.94287	-209.31859	1480.42896	1678.8894	-242.9586	1290.23755	1759.62012	-236.29312	1143.69324	1773.79407	-210.7506	1026.5116	1793.41516	-164.8438	898.7829	1773.55481	-212.27721	896.48706	1805.06409	-176.68007	833.04956	1808.03015	-125.82829	974.94598	1354.15857	-97.02737	977.27753	1607.88086	-324.66458	1026.03137	1456.16162	-317.13068	1032.42871	1571.5448	-189.69594	665.52747	1295.47742	-207.6768	481.79443	1306.82068	-357.33493	374.43094	1322.33716	-492.72147	199.19917	1355.65369	-521.92377	193.59166	1417.01025	-419.50739	67.76615	1311.50061	-135.87878	675.39075	1678.59241	-119.2123	466.74487	1630.27625	-149.73892	279.63525	1632.80603	-163.7852	88.74105	1588.46973	-199.01268	36.43888	1532.23474	-10.87174	37.40892	1600.58679	-292.97849	1780.12183	1547.33093	2845.86743	1034.26733	-3357.27881	NaN	NaN	NaN
136	1.35	-172.0135	1762.95947	1450.0415	-157.10883	1735.2821	1591.09753	-269.51038	1648.08044	1438.72632	-265.69543	1615.02393	1578.77795	-286.7999	1519.5592	1497.02905	-335.31158	1246.54443	1502.23816	-147.04495	1457.38721	1479.61572	-92.27534	1283.74731	1481.56482	-337.8544	1346.65247	1558.82068	-217.56721	1503.94409	1312.89111	-226.09766	1304.13721	1228.36157	-225.19293	1161.6969	1217.96094	-205.74646	1030.65576	1207.32849	-142.45297	910.06757	1244.79138	-185.21913	908.92609	1208.448	-162.80672	845.72229	1208.63257	-199.33862	1481.9823	1679.82593	-231.78947	1291.64844	1761.24377	-224.32524	1145.30042	1775.99756	-197.59119	1028.38538	1795.37781	-150.52869	901.3562	1775.19531	-197.55444	898.32184	1806.98364	-161.06627	835.48157	1809.83154	-118.69122	976.78339	1354.43994	-89.57884	977.87457	1609.04895	-317.25677	1027.61414	1458.20386	-309.51361	1033.82349	1573.29419	-176.72771	668.09723	1295.5459	-191.07895	484.04413	1306.79053	-339.22729	375.10928	1323.94922	-471.84393	197.85368	1356.79871	-500.49698	190.21207	1418.4585	-395.77371	69.37775	1309.02991	-130.5934	674.88177	1678.74377	-117.46666	466.5351	1630.56714	-149.58116	279.7753	1632.91797	-163.58859	88.76726	1588.17566	-199.06166	36.57529	1532.15039	-10.74422	37.28087	1600.58496	-284.52704	1781.27588	1548.41187	2845.19849	1034.05579	-3360.40356	NaN	NaN	NaN
137	1.36	-163.62779	1764.16589	1450.88	-148.59639	1736.50208	1591.97522	-261.04697	1649.22253	1439.65076	-257.17114	1616.04272	1579.85376	-278.12665	1521.00513	1498.31824	-327.32239	1248.16492	1504.14478	-138.52263	1458.40747	1480.28259	-84.30676	1284.58582	1482.22595	-329.79028	1349.11218	1561.42969	-209.71764	1504.87561	1313.84985	-219.82362	1304.88696	1230.02527	-220.91173	1162.68115	1219.45996	-203.96753	1031.30859	1208.547	-143.26649	909.24652	1245.14417	-185.29198	909.34576	1208.98694	-164.80528	845.51239	1209.19653	-189.20499	1483.71008	1680.6582	-220.24303	1293.41357	1763.25427	-212.21677	1146.93542	1778.12854	-184.23558	1030.08435	1796.8219	-136.04239	903.71997	1776.47156	-182.76616	900.2193	1808.75684	-145.30786	838.0376	1811.49854	-111.4751	978.78729	1354.94653	-82.16366	978.73395	1610.44177	-309.82715	1029.10681	1460.02795	-302.00784	1035.00183	1574.84912	-163.81526	670.43042	1295.48547	-174.90953	486.31805	1306.75281	-321.21048	375.19193	1325.37598	-450.33194	195.41942	1357.65149	-478.82013	186.31004	1419.50378	-371.31769	70.36694	1307.06726	-125.17722	675.15704	1679.62292	-115.48146	466.63113	1631.12097	-149.17854	279.8797	1633.13293	-163.45689	88.81626	1587.97827	-198.39461	36.19657	1531.85864	-10.59688	37.20376	1600.65625	-276.08636	1782.39526	1549.37952	2845.82886	1034.23254	-3357.40576	NaN	NaN	NaN
